<svg viewBox="0 0 500 500" xmlns="http://www.w3.org/2000/svg" xmlns:xlink="http://www.w3.org/1999/xlink" width="100%" id="blobSvg">
  <defs>
    <linearGradient id="gradient" x1="0%" y1="0%" x2="0%" y2="100%">
      <stop offset="0%" style="stop-color: rgb(255, 95, 109);"></stop>
      <stop offset="100%" style="stop-color: rgb(255, 195, 113);"></stop>
    </linearGradient>
  </defs>
  <path id="blob" d="M452.5,298.5Q468,347,425.5,372.5Q383,398,345,411.5Q307,425,271.5,404.5Q236,384,214,367Q192,350,127.5,368Q63,386,69,336.5Q75,287,41,242.5Q7,198,53,169Q99,140,138,131.5Q177,123,203.5,92Q230,61,260.5,93Q291,125,337.5,113Q384,101,419,130Q454,159,445.5,204.5Q437,250,452.5,298.5Z" fill="url(#gradient)"></path>
</svg>